<?xml version="1.0" encoding="UTF-8" ?>
<svg version="1.1" width="395" height="395" xmlns="http://www.w3.org/2000/svg" shape-rendering="crispEdges">
<rect x="195" y="49" width="4" height="66" fill="#8DA5F3" />
<rect x="194" y="51" width="1" height="1" fill="#8EA4F4" opacity="0.784314" />
<rect x="199" y="51" width="2" height="64" fill="#8DA5F3" />
<rect x="191" y="52" width="4" height="62" fill="#8DA5F3" />
<rect x="201" y="52" width="3" height="62" fill="#8DA5F3" />
<rect x="190" y="54" width="1" height="59" fill="#8DA5F3" />
<rect x="204" y="54" width="1" height="58" fill="#8DA5F3" />
<rect x="205" y="54" width="1" height="1" fill="#8DA5F3" opacity="0.752941" />
<rect x="188" y="55" width="2" height="56" fill="#8DA5F3" />
<rect x="205" y="55" width="2" height="56" fill="#8DA5F3" />
<rect x="187" y="57" width="1" height="52" fill="#8DA5F3" />
<rect x="207" y="57" width="1" height="52" fill="#8DA5F3" />
<rect x="208" y="57" width="1" height="1" fill="#8DA5F3" opacity="0.976471" />
<rect x="184" y="58" width="3" height="50" fill="#8DA5F3" />
<rect x="208" y="58" width="4" height="50" fill="#8DA5F3" />
<rect x="182" y="60" width="2" height="46" fill="#8DA5F3" />
<rect x="212" y="60" width="1" height="46" fill="#8DA5F3" />
<rect x="181" y="61" width="1" height="44" fill="#8DA5F3" />
<rect x="213" y="61" width="2" height="44" fill="#8DA5F3" />
<rect x="179" y="63" width="2" height="40" fill="#8DA5F3" />
<rect x="215" y="63" width="1" height="40" fill="#8DA5F3" />
<rect x="176" y="65" width="3" height="37" fill="#8DA5F3" />
<rect x="216" y="65" width="3" height="37" fill="#8DA5F3" />
<rect x="174" y="66" width="1" height="2" fill="#8EA5F3" opacity="0.600000" />
<rect x="175" y="66" width="1" height="34" fill="#8DA5F3" />
<rect x="219" y="66" width="2" height="34" fill="#8DA5F3" />
<rect x="173" y="68" width="2" height="31" fill="#8DA5F3" />
<rect x="221" y="68" width="1" height="31" fill="#8DA5F3" />
<rect x="222" y="68" width="1" height="1" fill="#8DA5F3" opacity="0.964706" />
<rect x="170" y="69" width="3" height="28" fill="#8DA5F3" />
<rect x="222" y="69" width="4" height="28" fill="#8DA5F3" />
<rect x="168" y="71" width="2" height="24" fill="#8DA5F3" />
<rect x="226" y="71" width="1" height="24" fill="#8DA5F3" />
<rect x="167" y="72" width="1" height="22" fill="#8DA5F3" />
<rect x="227" y="72" width="2" height="22" fill="#8DA5F3" />
<rect x="165" y="74" width="2" height="18" fill="#8DA5F3" />
<rect x="229" y="74" width="1" height="18" fill="#8DA5F3" />
<rect x="162" y="75" width="3" height="16" fill="#8DA5F3" />
<rect x="230" y="75" width="3" height="16" fill="#8DA5F3" />
<rect x="160" y="77" width="1" height="1" fill="#8DA5F3" opacity="0.501961" />
<rect x="161" y="77" width="1" height="12" fill="#8DA5F3" />
<rect x="233" y="77" width="2" height="12" fill="#8DA5F3" />
<rect x="159" y="78" width="2" height="10" fill="#8DA5F3" />
<rect x="235" y="78" width="1" height="10" fill="#8DA5F3" />
<rect x="157" y="80" width="1" height="2" fill="#8DA5F4" opacity="0.874510" />
<rect x="158" y="80" width="1" height="6" fill="#8DA5F3" />
<rect x="236" y="80" width="2" height="6" fill="#8DA5F3" />
<rect x="154" y="82" width="4" height="3" fill="#8DA5F3" />
<rect x="238" y="82" width="3" height="3" fill="#8DA5F3" />
<rect x="157" y="85" width="1" height="1" fill="#8DA5F4" opacity="0.870588" />
<rect x="160" y="88" width="1" height="1" fill="#8DA5F3" opacity="0.501961" />
<rect x="165" y="92" width="2" height="1" fill="#8DA5F3" opacity="0.831373" />
<rect x="229" y="92" width="1" height="1" fill="#8DA5F3" opacity="0.850980" />
<rect x="168" y="95" width="2" height="1" fill="#8CA5F4" opacity="0.435294" />
<rect x="226" y="95" width="1" height="1" fill="#8DA5F3" opacity="0.501961" />
<rect x="222" y="97" width="1" height="2" fill="#8DA5F3" />
<rect x="174" y="99" width="1" height="1" fill="#8DA5F3" opacity="0.568627" />
<rect x="130" y="100" width="4" height="66" fill="#8DA5F3" />
<rect x="260" y="100" width="4" height="66" fill="#8DA5F3" />
<rect x="134" y="102" width="2" height="64" fill="#8DA5F3" />
<rect x="177" y="102" width="2" height="1" fill="#8DA5F3" />
<rect x="259" y="102" width="1" height="1" fill="#8DA5F2" opacity="0.792157" />
<rect x="264" y="102" width="2" height="64" fill="#8DA5F3" />
<rect x="127" y="103" width="3" height="62" fill="#8DA5F3" />
<rect x="136" y="103" width="3" height="62" fill="#8DA5F3" />
<rect x="256" y="103" width="4" height="62" fill="#8DA5F3" />
<rect x="266" y="103" width="3" height="62" fill="#8DA5F3" />
<rect x="125" y="105" width="2" height="58" fill="#8DA5F3" />
<rect x="139" y="105" width="1" height="58" fill="#8DA5F3" />
<rect x="140" y="105" width="1" height="1" fill="#8DA5F3" opacity="0.501961" />
<rect x="255" y="105" width="1" height="58" fill="#8DA5F3" />
<rect x="269" y="105" width="1" height="58" fill="#8DA5F3" />
<rect x="123" y="106" width="2" height="56" fill="#8DA5F3" />
<rect x="140" y="106" width="2" height="56" fill="#8DA5F3" />
<rect x="253" y="106" width="2" height="56" fill="#8DA5F3" />
<rect x="270" y="106" width="2" height="56" fill="#8DA5F3" />
<rect x="122" y="108" width="1" height="52" fill="#8DA5F3" />
<rect x="142" y="108" width="1" height="52" fill="#8DA5F3" />
<rect x="143" y="108" width="1" height="1" fill="#8DA5F3" opacity="0.850980" />
<rect x="208" y="108" width="1" height="1" fill="#8DA5F3" opacity="0.976471" />
<rect x="252" y="108" width="1" height="52" fill="#8DA5F3" />
<rect x="272" y="108" width="1" height="52" fill="#8DA5F3" />
<rect x="119" y="109" width="3" height="50" fill="#8DA5F3" />
<rect x="143" y="109" width="4" height="50" fill="#8DA5F3" />
<rect x="187" y="109" width="1" height="1" fill="#8DA5F3" opacity="0.831373" />
<rect x="207" y="109" width="1" height="1" fill="#8DA5F3" opacity="0.850980" />
<rect x="249" y="109" width="3" height="50" fill="#8DA5F3" />
<rect x="273" y="109" width="4" height="50" fill="#8DA5F3" />
<rect x="248" y="110" width="1" height="1" fill="#899FEC" opacity="0.364706" />
<rect x="117" y="111" width="2" height="46" fill="#8DA5F3" />
<rect x="147" y="111" width="1" height="46" fill="#8DA5F3" />
<rect x="205" y="111" width="1" height="1" fill="#8DA5F3" opacity="0.752941" />
<rect x="247" y="111" width="2" height="46" fill="#8DA5F3" />
<rect x="277" y="111" width="1" height="46" fill="#8DA5F3" />
<rect x="116" y="112" width="1" height="44" fill="#8DA5F3" />
<rect x="148" y="112" width="2" height="44" fill="#8DA5F3" />
<rect x="204" y="112" width="1" height="1" fill="#8DA5F3" opacity="0.501961" />
<rect x="246" y="112" width="1" height="44" fill="#8DA5F3" />
<rect x="278" y="112" width="2" height="44" fill="#8DA5F3" />
<rect x="245" y="113" width="1" height="1" fill="#8DA5F3" opacity="0.737255" />
<rect x="114" y="114" width="2" height="40" fill="#8DA5F3" />
<rect x="150" y="114" width="1" height="40" fill="#8DA5F3" />
<rect x="194" y="114" width="1" height="2" fill="#8DA5F3" opacity="0.780392" />
<rect x="244" y="114" width="2" height="40" fill="#8DA5F3" />
<rect x="280" y="114" width="1" height="40" fill="#8DA5F3" />
<rect x="195" y="115" width="1" height="1" fill="#8DA5F3" opacity="0.988235" />
<rect x="196" y="115" width="3" height="2" fill="#8DA5F3" />
<rect x="199" y="115" width="2" height="1" fill="#8DA5F3" opacity="0.992157" />
<rect x="111" y="116" width="3" height="37" fill="#8DA5F3" />
<rect x="151" y="116" width="3" height="37" fill="#8DA5F3" />
<rect x="241" y="116" width="3" height="37" fill="#8DA5F3" />
<rect x="281" y="116" width="3" height="37" fill="#8DA5F3" />
<rect x="110" y="117" width="1" height="34" fill="#8DA5F3" />
<rect x="154" y="117" width="2" height="34" fill="#8DA5F3" />
<rect x="239" y="117" width="1" height="2" fill="#8DA5F4" opacity="0.611765" />
<rect x="240" y="117" width="1" height="34" fill="#8DA5F3" />
<rect x="284" y="117" width="2" height="34" fill="#8DA5F3" />
<rect x="108" y="119" width="2" height="31" fill="#8DA5F3" />
<rect x="156" y="119" width="1" height="31" fill="#8DA5F3" />
<rect x="157" y="119" width="1" height="1" fill="#8DA5F3" opacity="0.807843" />
<rect x="238" y="119" width="2" height="31" fill="#8DA5F3" />
<rect x="286" y="119" width="1" height="31" fill="#8DA5F3" />
<rect x="105" y="120" width="3" height="28" fill="#8DA5F3" />
<rect x="157" y="120" width="4" height="28" fill="#8DA5F3" />
<rect x="235" y="120" width="3" height="28" fill="#8DA5F3" />
<rect x="287" y="120" width="3" height="28" fill="#8DA5F3" />
<rect x="103" y="122" width="2" height="24" fill="#8DA5F3" />
<rect x="161" y="122" width="1" height="24" fill="#8DA5F3" />
<rect x="233" y="122" width="2" height="24" fill="#8DA5F3" />
<rect x="290" y="122" width="2" height="24" fill="#8DA5F3" />
<rect x="102" y="123" width="1" height="22" fill="#8DA5F3" />
<rect x="162" y="123" width="2" height="22" fill="#8DA5F3" />
<rect x="231" y="123" width="1" height="2" fill="#8EA5F3" opacity="0.678431" />
<rect x="232" y="123" width="1" height="22" fill="#8DA5F3" />
<rect x="292" y="123" width="2" height="22" fill="#8DA5F3" />
<rect x="100" y="125" width="2" height="18" fill="#8DA5F3" />
<rect x="164" y="125" width="1" height="18" fill="#8DA5F3" />
<rect x="230" y="125" width="2" height="18" fill="#8DA5F3" />
<rect x="294" y="125" width="1" height="18" fill="#8DA5F3" />
<rect x="97" y="126" width="3" height="16" fill="#8DA5F3" />
<rect x="165" y="126" width="3" height="16" fill="#8DA5F3" />
<rect x="227" y="126" width="3" height="16" fill="#8DA5F3" />
<rect x="295" y="126" width="3" height="16" fill="#8DA5F3" />
<rect x="96" y="128" width="1" height="12" fill="#8DA5F3" />
<rect x="168" y="128" width="2" height="12" fill="#8DA5F3" />
<rect x="225" y="128" width="1" height="1" fill="#8DA5F4" opacity="0.533333" />
<rect x="226" y="128" width="1" height="12" fill="#8DA5F3" />
<rect x="298" y="128" width="2" height="12" fill="#8DA5F3" />
<rect x="94" y="129" width="2" height="10" fill="#8DA5F3" />
<rect x="170" y="129" width="1" height="10" fill="#8DA5F3" />
<rect x="224" y="129" width="2" height="10" fill="#8DA5F3" />
<rect x="300" y="129" width="1" height="10" fill="#8DA5F3" />
<rect x="93" y="131" width="1" height="6" fill="#8DA5F3" />
<rect x="171" y="131" width="2" height="6" fill="#8DA5F3" />
<rect x="222" y="131" width="1" height="2" fill="#8DA5F2" opacity="0.878431" />
<rect x="223" y="131" width="1" height="6" fill="#8DA5F3" />
<rect x="301" y="131" width="2" height="6" fill="#8DA5F3" />
<rect x="89" y="133" width="4" height="3" fill="#8DA5F3" />
<rect x="173" y="133" width="3" height="3" fill="#8DA5F3" />
<rect x="219" y="133" width="4" height="3" fill="#8DA5F3" />
<rect x="303" y="133" width="3" height="3" fill="#8DA5F3" />
<rect x="222" y="136" width="1" height="1" fill="#8DA5F4" opacity="0.874510" />
<rect x="225" y="139" width="1" height="1" fill="#8DA5F3" opacity="0.501961" />
<rect x="231" y="143" width="1" height="2" fill="#8DA5F3" />
<rect x="103" y="146" width="2" height="1" fill="#8CA5F2" opacity="0.400000" />
<rect x="161" y="146" width="1" height="1" fill="#8DA5F3" opacity="0.501961" />
<rect x="233" y="146" width="2" height="1" fill="#8CA5F4" opacity="0.435294" />
<rect x="290" y="146" width="2" height="1" fill="#8DA5F2" opacity="0.466667" />
<rect x="157" y="148" width="1" height="2" fill="#8DA5F3" />
<rect x="239" y="150" width="1" height="1" fill="#8DA5F3" />
<rect x="65" y="151" width="4" height="66" fill="#8DA5F3" />
<rect x="195" y="151" width="4" height="66" fill="#8DA5F3" />
<rect x="326" y="151" width="3" height="68" fill="#8DA5F3" />
<rect x="325" y="152" width="1" height="67" fill="#8DA5F3" />
<rect x="329" y="152" width="1" height="66" fill="#8DA5F3" />
<rect x="69" y="153" width="2" height="64" fill="#8DA5F3" />
<rect x="112" y="153" width="2" height="1" fill="#8DA5F3" />
<rect x="194" y="153" width="1" height="1" fill="#8DA5F4" opacity="0.788235" />
<rect x="199" y="153" width="2" height="64" fill="#8DA5F3" />
<rect x="242" y="153" width="2" height="1" fill="#8DA5F3" />
<rect x="323" y="153" width="2" height="61" fill="#8DA5F3" />
<rect x="330" y="153" width="2" height="2" fill="#8DA5F3" />
<rect x="62" y="154" width="3" height="62" fill="#8DA5F3" />
<rect x="71" y="154" width="3" height="62" fill="#8DA5F3" />
<rect x="191" y="154" width="4" height="60" fill="#8DA5F3" />
<rect x="201" y="154" width="3" height="62" fill="#8DA5F3" />
<rect x="245" y="154" width="1" height="2" fill="#8DA5F3" />
<rect x="321" y="154" width="2" height="62" fill="#8DA5F3" />
<rect x="332" y="154" width="1" height="62" fill="#8DA5F3" />
<rect x="330" y="155" width="1" height="1" fill="#8CA5F3" opacity="0.925490" />
<rect x="331" y="155" width="1" height="62" fill="#8DA5F3" />
<rect x="333" y="155" width="1" height="60" fill="#8DA5F3" />
<rect x="60" y="156" width="2" height="58" fill="#8DA5F3" />
<rect x="74" y="156" width="1" height="58" fill="#8DA5F3" />
<rect x="75" y="156" width="1" height="1" fill="#8DA5F3" opacity="0.752941" />
<rect x="190" y="156" width="1" height="58" fill="#8DA5F3" />
<rect x="204" y="156" width="1" height="58" fill="#8DA5F3" />
<rect x="319" y="156" width="2" height="58" fill="#8DA5F3" />
<rect x="330" y="156" width="1" height="58" fill="#8DA5F3" />
<rect x="334" y="156" width="1" height="58" fill="#8DA5F3" />
<rect x="58" y="157" width="2" height="56" fill="#8DA5F3" />
<rect x="75" y="157" width="2" height="56" fill="#8DA5F3" />
<rect x="188" y="157" width="2" height="56" fill="#8DA5F3" />
<rect x="205" y="157" width="2" height="56" fill="#8DA5F3" />
<rect x="248" y="157" width="1" height="2" fill="#8DA5F3" />
<rect x="318" y="157" width="1" height="57" fill="#8DA5F3" />
<rect x="335" y="157" width="2" height="56" fill="#8DA5F3" />
<rect x="317" y="158" width="1" height="55" fill="#8DA5F3" />
<rect x="337" y="158" width="1" height="54" fill="#8DA5F3" />
<rect x="57" y="159" width="1" height="52" fill="#8DA5F3" />
<rect x="77" y="159" width="1" height="52" fill="#8DA5F3" />
<rect x="78" y="159" width="1" height="1" fill="#8DA5F3" opacity="0.976471" />
<rect x="143" y="159" width="1" height="1" fill="#8DA5F3" opacity="0.850980" />
<rect x="187" y="159" width="1" height="52" fill="#8DA5F3" />
<rect x="207" y="159" width="1" height="52" fill="#8DA5F3" />
<rect x="315" y="159" width="2" height="52" fill="#8DA5F3" />
<rect x="338" y="159" width="1" height="52" fill="#8DA5F3" />
<rect x="54" y="160" width="3" height="50" fill="#8DA5F3" />
<rect x="78" y="160" width="4" height="50" fill="#8DA5F3" />
<rect x="184" y="160" width="3" height="50" fill="#8DA5F3" />
<rect x="208" y="160" width="4" height="50" fill="#8DA5F3" />
<rect x="313" y="160" width="1" height="1" fill="#566498" opacity="0.560784" />
<rect x="314" y="160" width="1" height="3" fill="#8DA5F3" />
<rect x="339" y="160" width="1" height="3" fill="#8DA5F3" />
<rect x="340" y="160" width="1" height="1" fill="#778DCD" opacity="0.419608" />
<rect x="313" y="161" width="1" height="49" fill="#8DA5F3" />
<rect x="340" y="161" width="2" height="2" fill="#8DA5F3" />
<rect x="52" y="162" width="2" height="46" fill="#8DA5F3" />
<rect x="82" y="162" width="1" height="46" fill="#8DA5F3" />
<rect x="140" y="162" width="1" height="1" fill="#8DA5F3" opacity="0.501961" />
<rect x="182" y="162" width="2" height="46" fill="#8DA5F3" />
<rect x="212" y="162" width="1" height="46" fill="#8DA5F3" />
<rect x="311" y="162" width="2" height="46" fill="#8DA5F3" />
<rect x="342" y="162" width="1" height="46" fill="#8DA5F3" />
<rect x="51" y="163" width="1" height="44" fill="#8DA5F3" />
<rect x="83" y="163" width="2" height="44" fill="#8DA5F3" />
<rect x="125" y="163" width="2" height="1" fill="#8CA5F2" opacity="0.400000" />
<rect x="139" y="163" width="1" height="1" fill="#8DA5F3" opacity="0.501961" />
<rect x="181" y="163" width="1" height="44" fill="#8DA5F3" />
<rect x="213" y="163" width="2" height="44" fill="#8DA5F3" />
<rect x="255" y="163" width="1" height="1" fill="#8CA5F4" opacity="0.435294" />
<rect x="269" y="163" width="1" height="1" fill="#8DA5F2" opacity="0.466667" />
<rect x="310" y="163" width="1" height="44" fill="#8DA5F3" />
<rect x="314" y="163" width="1" height="1" fill="#8DA5F3" opacity="0.996078" />
<rect x="339" y="163" width="2" height="1" fill="#8DA5F3" opacity="0.996078" />
<rect x="341" y="163" width="1" height="46" fill="#8DA5F3" />
<rect x="343" y="163" width="1" height="44" fill="#8DA5F3" />
<rect x="309" y="164" width="1" height="43" fill="#8DA5F3" />
<rect x="314" y="164" width="1" height="43" fill="#8DA5F3" />
<rect x="339" y="164" width="2" height="43" fill="#8DA5F3" />
<rect x="344" y="164" width="1" height="43" fill="#8DA5F3" />
<rect x="49" y="165" width="2" height="40" fill="#8DA5F3" />
<rect x="85" y="165" width="1" height="40" fill="#8DA5F3" />
<rect x="179" y="165" width="2" height="40" fill="#8DA5F3" />
<rect x="215" y="165" width="1" height="40" fill="#8DA5F3" />
<rect x="259" y="165" width="1" height="2" fill="#8EA4F4" opacity="0.784314" />
<rect x="307" y="165" width="2" height="37" fill="#8DA5F3" />
<rect x="345" y="165" width="2" height="40" fill="#8DA5F3" />
<rect x="130" y="166" width="1" height="1" fill="#8DA4F3" opacity="0.949020" />
<rect x="131" y="166" width="3" height="2" fill="#8DA5F3" />
<rect x="134" y="166" width="2" height="1" fill="#8DA5F3" opacity="0.960784" />
<rect x="260" y="166" width="1" height="1" fill="#8EA4F4" opacity="0.784314" />
<rect x="261" y="166" width="3" height="2" fill="#8DA5F3" />
<rect x="264" y="166" width="1" height="1" fill="#8DA5F2" opacity="0.796078" />
<rect x="306" y="166" width="1" height="38" fill="#8DA5F3" />
<rect x="347" y="166" width="1" height="38" fill="#8DA5F3" />
<rect x="46" y="167" width="3" height="37" fill="#8DA5F3" />
<rect x="86" y="167" width="3" height="37" fill="#8DA5F3" />
<rect x="176" y="167" width="3" height="37" fill="#8DA5F3" />
<rect x="216" y="167" width="3" height="37" fill="#8DA5F3" />
<rect x="305" y="167" width="1" height="36" fill="#8DA5F3" />
<rect x="348" y="167" width="1" height="37" fill="#8DA5F3" />
<rect x="45" y="168" width="1" height="34" fill="#8DA5F3" />
<rect x="89" y="168" width="2" height="34" fill="#8DA5F3" />
<rect x="174" y="168" width="1" height="2" fill="#8DA5F3" opacity="0.607843" />
<rect x="175" y="168" width="1" height="34" fill="#8DA5F3" />
<rect x="219" y="168" width="2" height="34" fill="#8DA5F3" />
<rect x="304" y="168" width="1" height="35" fill="#8DA5F3" />
<rect x="349" y="168" width="1" height="35" fill="#8DA5F3" />
<rect x="302" y="169" width="2" height="32" fill="#8DA5F3" />
<rect x="350" y="169" width="1" height="33" fill="#8DA5F3" />
<rect x="43" y="170" width="2" height="31" fill="#8DA5F3" />
<rect x="91" y="170" width="1" height="31" fill="#8DA5F3" />
<rect x="92" y="170" width="1" height="1" fill="#8DA5F3" opacity="0.964706" />
<rect x="173" y="170" width="2" height="31" fill="#8DA5F3" />
<rect x="221" y="170" width="1" height="31" fill="#8DA5F3" />
<rect x="301" y="170" width="1" height="30" fill="#8DA5F3" />
<rect x="351" y="170" width="2" height="30" fill="#8DA5F3" />
<rect x="40" y="171" width="3" height="28" fill="#8DA5F3" />
<rect x="92" y="171" width="4" height="28" fill="#8DA5F3" />
<rect x="170" y="171" width="3" height="28" fill="#8DA5F3" />
<rect x="222" y="171" width="3" height="28" fill="#8DA5F3" />
<rect x="299" y="171" width="2" height="25" fill="#8DA5F3" />
<rect x="353" y="171" width="2" height="25" fill="#8DA5F3" />
<rect x="298" y="172" width="1" height="26" fill="#8DA5F3" />
<rect x="38" y="173" width="2" height="24" fill="#8DA5F3" />
<rect x="96" y="173" width="1" height="24" fill="#8DA5F3" />
<rect x="168" y="173" width="2" height="24" fill="#8DA5F3" />
<rect x="225" y="173" width="2" height="24" fill="#8DA5F3" />
<rect x="297" y="173" width="1" height="24" fill="#8DA5F3" />
<rect x="355" y="173" width="1" height="25" fill="#8DA5F3" />
<rect x="37" y="174" width="1" height="22" fill="#8DA5F3" />
<rect x="97" y="174" width="2" height="22" fill="#8DA5F3" />
<rect x="167" y="174" width="1" height="22" fill="#8DA5F3" />
<rect x="227" y="174" width="2" height="22" fill="#8DA5F3" />
<rect x="296" y="174" width="1" height="22" fill="#8DA5F3" />
<rect x="356" y="174" width="2" height="22" fill="#8DA5F3" />
<rect x="294" y="175" width="2" height="16" fill="#8DA5F3" />
<rect x="358" y="175" width="1" height="21" fill="#8DA5F3" />
<rect x="35" y="176" width="2" height="18" fill="#8DA5F3" />
<rect x="99" y="176" width="1" height="18" fill="#8DA5F3" />
<rect x="165" y="176" width="2" height="18" fill="#8DA5F3" />
<rect x="229" y="176" width="1" height="18" fill="#8DA5F3" />
<rect x="293" y="176" width="1" height="18" fill="#8DA5F3" />
<rect x="359" y="176" width="1" height="19" fill="#8DA5F3" />
<rect x="32" y="177" width="3" height="16" fill="#8DA5F3" />
<rect x="100" y="177" width="3" height="16" fill="#8DA5F3" />
<rect x="162" y="177" width="3" height="16" fill="#8DA5F3" />
<rect x="230" y="177" width="3" height="16" fill="#8DA5F3" />
<rect x="292" y="177" width="1" height="3" fill="#8DA5F3" />
<rect x="360" y="177" width="2" height="3" fill="#8DA5F3" />
<rect x="362" y="177" width="1" height="1" fill="#778DCD" opacity="0.419608" />
<rect x="290" y="178" width="2" height="14" fill="#8DA5F3" />
<rect x="362" y="178" width="1" height="14" fill="#8DA5F3" />
<rect x="31" y="179" width="1" height="12" fill="#8DA5F3" />
<rect x="103" y="179" width="2" height="12" fill="#8DA5F3" />
<rect x="160" y="179" width="1" height="1" fill="#8DA5F4" opacity="0.533333" />
<rect x="161" y="179" width="1" height="12" fill="#8DA5F3" />
<rect x="233" y="179" width="2" height="12" fill="#8DA5F3" />
<rect x="289" y="179" width="1" height="12" fill="#8DA5F3" />
<rect x="363" y="179" width="1" height="13" fill="#8DA5F3" />
<rect x="29" y="180" width="2" height="10" fill="#8DA5F3" />
<rect x="105" y="180" width="1" height="10" fill="#8DA5F3" />
<rect x="159" y="180" width="2" height="10" fill="#8DA5F3" />
<rect x="235" y="180" width="1" height="10" fill="#8DA5F3" />
<rect x="288" y="180" width="1" height="10" fill="#8DA5F3" />
<rect x="292" y="180" width="1" height="1" fill="#8DA5F3" opacity="0.996078" />
<rect x="360" y="180" width="1" height="14" fill="#8DA5F3" />
<rect x="361" y="180" width="1" height="1" fill="#8DA5F3" opacity="0.996078" />
<rect x="364" y="180" width="1" height="11" fill="#8DA5F3" />
<rect x="286" y="181" width="2" height="4" fill="#8DA5F3" />
<rect x="292" y="181" width="1" height="12" fill="#8DA5F3" />
<rect x="361" y="181" width="1" height="12" fill="#8DA5F3" />
<rect x="365" y="181" width="1" height="9" fill="#8DA5F3" />
<rect x="28" y="182" width="1" height="6" fill="#8DA5F3" />
<rect x="106" y="182" width="2" height="6" fill="#8DA5F3" />
<rect x="157" y="182" width="1" height="2" fill="#8DA5F2" opacity="0.878431" />
<rect x="158" y="182" width="1" height="6" fill="#8DA5F3" />
<rect x="236" y="182" width="2" height="6" fill="#8DA5F3" />
<rect x="285" y="182" width="1" height="6" fill="#8DA5F3" />
<rect x="366" y="182" width="2" height="3" fill="#8DA5F3" />
<rect x="284" y="183" width="1" height="4" fill="#8DA5F3" />
<rect x="368" y="183" width="1" height="5" fill="#8DA5F3" />
<rect x="24" y="184" width="4" height="3" fill="#8DA5F3" />
<rect x="108" y="184" width="3" height="3" fill="#8DA5F3" />
<rect x="154" y="184" width="4" height="3" fill="#8DA5F3" />
<rect x="238" y="184" width="3" height="3" fill="#8DA5F3" />
<rect x="369" y="184" width="1" height="3" fill="#8DA5F3" />
<rect x="286" y="185" width="1" height="1" fill="#8DA5F3" opacity="0.964706" />
<rect x="287" y="185" width="1" height="4" fill="#8DA5F3" />
<rect x="366" y="185" width="1" height="4" fill="#8DA5F3" />
<rect x="367" y="185" width="1" height="1" fill="#8DA5F3" opacity="0.972549" />
<rect x="286" y="186" width="1" height="3" fill="#8DA5F3" />
<rect x="367" y="186" width="1" height="3" fill="#8DA5F3" />
<rect x="157" y="187" width="1" height="1" fill="#8DA5F3" opacity="0.866667" />
<rect x="160" y="190" width="1" height="1" fill="#8DA5F2" opacity="0.466667" />
<rect x="294" y="191" width="1" height="1" fill="#8DA5F3" opacity="0.941176" />
<rect x="295" y="191" width="1" height="5" fill="#8DA5F3" />
<rect x="294" y="192" width="1" height="3" fill="#8DA5F3" />
<rect x="362" y="192" width="1" height="1" fill="#778DCD" opacity="0.419608" />
<rect x="299" y="196" width="1" height="3" fill="#8DA5F3" />
<rect x="300" y="196" width="1" height="1" fill="#8DA5F3" opacity="0.980392" />
<rect x="353" y="196" width="1" height="1" fill="#8DA5F3" opacity="0.988235" />
<rect x="354" y="196" width="1" height="3" fill="#8DA5F3" />
<rect x="356" y="196" width="1" height="1" fill="#8DA5F3" />
<rect x="300" y="197" width="1" height="2" fill="#8DA5F3" />
<rect x="353" y="197" width="1" height="2" fill="#8DA5F3" />
<rect x="92" y="199" width="1" height="2" fill="#8DA5F3" />
<rect x="351" y="200" width="1" height="1" fill="#8DA5F3" />
<rect x="174" y="201" width="1" height="1" fill="#8DA5F4" opacity="0.533333" />
<rect x="303" y="201" width="1" height="1" fill="#8DA5F3" />
<rect x="130" y="202" width="4" height="66" fill="#8DA5F3" />
<rect x="261" y="202" width="3" height="30" fill="#8DA5F3" />
<rect x="307" y="202" width="1" height="3" fill="#8DA5F3" />
<rect x="308" y="202" width="1" height="1" fill="#8DA5F3" opacity="0.964706" />
<rect x="308" y="203" width="1" height="3" fill="#8DA5F3" />
<rect x="47" y="204" width="2" height="1" fill="#8DA5F3" />
<rect x="134" y="204" width="2" height="64" fill="#8DA5F3" />
<rect x="177" y="204" width="2" height="1" fill="#8DA5F3" />
<rect x="259" y="204" width="2" height="28" fill="#8DA5F3" />
<rect x="264" y="204" width="1" height="28" fill="#8DA5F3" />
<rect x="127" y="205" width="3" height="62" fill="#8DA5F3" />
<rect x="136" y="205" width="3" height="62" fill="#8DA5F3" />
<rect x="256" y="205" width="3" height="27" fill="#8DA5F3" />
<rect x="265" y="205" width="3" height="27" fill="#8DA5F3" />
<rect x="345" y="205" width="1" height="1" fill="#8DA5F3" />
<rect x="125" y="207" width="2" height="58" fill="#8DA5F3" />
<rect x="139" y="207" width="1" height="58" fill="#8DA5F3" />
<rect x="255" y="207" width="1" height="25" fill="#8DA5F3" />
<rect x="268" y="207" width="2" height="25" fill="#8DA5F3" />
<rect x="314" y="207" width="1" height="1" fill="#8DA5F3" opacity="0.992157" />
<rect x="339" y="207" width="1" height="1" fill="#8DA5F3" opacity="0.996078" />
<rect x="340" y="207" width="1" height="3" fill="#8DA5F3" />
<rect x="123" y="208" width="2" height="56" fill="#8DA5F3" />
<rect x="140" y="208" width="2" height="56" fill="#8DA5F3" />
<rect x="253" y="208" width="2" height="24" fill="#8DA5F3" />
<rect x="270" y="208" width="2" height="2" fill="#8EA4F4" opacity="0.705882" />
<rect x="312" y="208" width="1" height="1" fill="#8DA5F3" />
<rect x="314" y="208" width="1" height="2" fill="#8DA5F3" />
<rect x="339" y="208" width="1" height="2" fill="#8DA5F3" />
<rect x="78" y="210" width="1" height="1" fill="#8DA5F3" opacity="0.976471" />
<rect x="122" y="210" width="1" height="52" fill="#8DA5F3" />
<rect x="142" y="210" width="1" height="52" fill="#8DA5F3" />
<rect x="252" y="210" width="1" height="22" fill="#8DA5F3" />
<rect x="270" y="210" width="2" height="22" fill="#8DA5F3" />
<rect x="272" y="210" width="1" height="1" fill="#8DA5F3" opacity="0.858824" />
<rect x="119" y="211" width="3" height="50" fill="#8DA5F3" />
<rect x="143" y="211" width="4" height="50" fill="#8DA5F3" />
<rect x="248" y="211" width="4" height="21" fill="#8DA5F3" />
<rect x="272" y="211" width="1" height="21" fill="#8DA5F3" />
<rect x="273" y="211" width="2" height="2" fill="#8DA5F3" opacity="0.964706" />
<rect x="275" y="211" width="1" height="2" fill="#8EA4F4" opacity="0.372549" />
<rect x="316" y="211" width="1" height="1" fill="#8DA5F3" />
<rect x="75" y="213" width="1" height="1" fill="#8DA5F3" opacity="0.752941" />
<rect x="117" y="213" width="2" height="46" fill="#8DA5F3" />
<rect x="147" y="213" width="1" height="46" fill="#8DA5F3" />
<rect x="247" y="213" width="1" height="20" fill="#8DA5F3" />
<rect x="273" y="213" width="3" height="19" fill="#8DA5F3" />
<rect x="276" y="213" width="2" height="1" fill="#8EA5F3" opacity="0.600000" />
<rect x="335" y="213" width="1" height="1" fill="#8DA5F3" />
<rect x="116" y="214" width="1" height="44" fill="#8DA5F3" />
<rect x="148" y="214" width="2" height="44" fill="#8DA5F3" />
<rect x="192" y="214" width="3" height="2" fill="#8DA5F3" />
<rect x="245" y="214" width="2" height="20" fill="#8DA5F3" />
<rect x="276" y="214" width="2" height="18" fill="#8DA5F3" />
<rect x="278" y="214" width="1" height="2" fill="#8DA6F3" opacity="0.760784" />
<rect x="320" y="214" width="1" height="1" fill="#8DA5F3" />
<rect x="323" y="214" width="1" height="1" fill="#8DA5F3" opacity="0.909804" />
<rect x="324" y="214" width="1" height="4" fill="#8DA5F3" />
<rect x="330" y="214" width="1" height="1" fill="#8CA5F3" opacity="0.925490" />
<rect x="323" y="215" width="1" height="2" fill="#8DA5F3" />
<rect x="330" y="215" width="1" height="2" fill="#8DA5F3" />
<rect x="114" y="216" width="2" height="40" fill="#8DA5F3" />
<rect x="150" y="216" width="1" height="40" fill="#8DA5F3" />
<rect x="194" y="216" width="1" height="2" fill="#8CA5F3" opacity="0.776471" />
<rect x="244" y="216" width="1" height="40" fill="#8DA5F3" />
<rect x="278" y="216" width="1" height="16" fill="#8DA5F3" />
<rect x="279" y="216" width="2" height="2" fill="#8DA5F3" opacity="0.898039" />
<rect x="322" y="216" width="1" height="1" fill="#8DA5F3" />
<rect x="65" y="217" width="1" height="1" fill="#8DA5F3" opacity="0.952941" />
<rect x="66" y="217" width="3" height="2" fill="#8DA5F3" />
<rect x="69" y="217" width="2" height="1" fill="#8DA5F3" opacity="0.960784" />
<rect x="195" y="217" width="1" height="1" fill="#8CA5F3" opacity="0.776471" />
<rect x="196" y="217" width="3" height="2" fill="#8DA5F3" />
<rect x="199" y="217" width="2" height="1" fill="#8DA5F2" opacity="0.800000" />
<rect x="111" y="218" width="3" height="37" fill="#8DA5F3" />
<rect x="151" y="218" width="3" height="37" fill="#8DA5F3" />
<rect x="241" y="218" width="3" height="37" fill="#8DA5F3" />
<rect x="279" y="218" width="2" height="14" fill="#8DA5F3" />
<rect x="281" y="218" width="1" height="1" fill="#8DA5F3" opacity="0.976471" />
<rect x="282" y="218" width="2" height="1" fill="#8DA5F3" opacity="0.411765" />
<rect x="110" y="219" width="1" height="34" fill="#8DA5F3" />
<rect x="154" y="219" width="2" height="34" fill="#8DA5F3" />
<rect x="239" y="219" width="2" height="34" fill="#8DA5F3" />
<rect x="281" y="219" width="4" height="14" fill="#8DA5F3" />
<rect x="108" y="221" width="2" height="31" fill="#8DA5F3" />
<rect x="156" y="221" width="1" height="31" fill="#8DA5F3" />
<rect x="238" y="221" width="1" height="31" fill="#8DA5F3" />
<rect x="285" y="221" width="2" height="31" fill="#8DA5F3" />
<rect x="105" y="222" width="3" height="28" fill="#8DA5F3" />
<rect x="157" y="222" width="3" height="28" fill="#8DA5F3" />
<rect x="235" y="222" width="3" height="26" fill="#8DA5F3" />
<rect x="287" y="222" width="3" height="25" fill="#8DA5F3" />
<rect x="103" y="224" width="2" height="24" fill="#8DA5F3" />
<rect x="160" y="224" width="2" height="24" fill="#8DA5F3" />
<rect x="233" y="224" width="2" height="24" fill="#8DA5F3" />
<rect x="290" y="224" width="2" height="24" fill="#8DA5F3" />
<rect x="102" y="225" width="1" height="22" fill="#8DA5F3" />
<rect x="162" y="225" width="2" height="22" fill="#8DA5F3" />
<rect x="231" y="225" width="2" height="22" fill="#8DA5F3" />
<rect x="292" y="225" width="1" height="22" fill="#8DA5F3" />
<rect x="100" y="227" width="2" height="18" fill="#8DA5F3" />
<rect x="164" y="227" width="1" height="18" fill="#8DA5F3" />
<rect x="230" y="227" width="1" height="18" fill="#8DA5F3" />
<rect x="293" y="227" width="2" height="18" fill="#8DA5F3" />
<rect x="97" y="228" width="3" height="16" fill="#8DA5F3" />
<rect x="165" y="228" width="3" height="16" fill="#8DA5F3" />
<rect x="227" y="228" width="3" height="16" fill="#8DA5F3" />
<rect x="295" y="228" width="3" height="16" fill="#8DA5F3" />
<rect x="96" y="230" width="1" height="12" fill="#8DA5F3" />
<rect x="168" y="230" width="2" height="12" fill="#8DA5F3" />
<rect x="225" y="230" width="2" height="12" fill="#8DA5F3" />
<rect x="298" y="230" width="1" height="12" fill="#8DA5F3" />
<rect x="94" y="231" width="2" height="10" fill="#8DA5F3" />
<rect x="170" y="231" width="1" height="10" fill="#8DA5F3" />
<rect x="224" y="231" width="1" height="10" fill="#8DA5F3" />
<rect x="299" y="231" width="2" height="10" fill="#8DA5F3" />
<rect x="248" y="232" width="1" height="1" fill="#8DA5F3" />
<rect x="93" y="233" width="1" height="6" fill="#8DA5F3" />
<rect x="171" y="233" width="2" height="6" fill="#8DA5F3" />
<rect x="222" y="233" width="2" height="6" fill="#8DA5F3" />
<rect x="283" y="233" width="2" height="1" fill="#8DA5F3" />
<rect x="301" y="233" width="1" height="6" fill="#8DA5F3" />
<rect x="245" y="234" width="1" height="2" fill="#8DA5F3" />
<rect x="284" y="234" width="1" height="2" fill="#8DA5F3" />
<rect x="89" y="235" width="4" height="3" fill="#8DA5F3" />
<rect x="173" y="235" width="3" height="3" fill="#8DA5F3" />
<rect x="219" y="235" width="3" height="3" fill="#8DA5F3" />
<rect x="302" y="235" width="4" height="3" fill="#8DA5F3" />
<rect x="253" y="236" width="24" height="96" fill="#8DA5F3" />
<rect x="251" y="237" width="2" height="94" fill="#8DA5F3" />
<rect x="277" y="237" width="2" height="94" fill="#8DA5F3" />
<rect x="250" y="238" width="1" height="92" fill="#8DA5F3" />
<rect x="279" y="238" width="1" height="92" fill="#8DA5F3" />
<rect x="249" y="240" width="1" height="88" fill="#8DA5F3" />
<rect x="280" y="240" width="1" height="88" fill="#8DA5F3" />
<rect x="287" y="247" width="2" height="3" fill="#8DA5F3" />
<rect x="289" y="247" width="1" height="1" fill="#8DA5F3" opacity="0.988235" />
<rect x="236" y="248" width="2" height="2" fill="#8DA5F3" />
<rect x="289" y="248" width="1" height="2" fill="#8DA5F3" />
<rect x="196" y="253" width="3" height="68" fill="#8DA5F3" />
<rect x="112" y="255" width="2" height="1" fill="#8DA5F3" />
<rect x="194" y="255" width="2" height="64" fill="#8DA5F3" />
<rect x="199" y="255" width="2" height="64" fill="#8DA5F3" />
<rect x="243" y="255" width="1" height="1" fill="#8DA5F3" />
<rect x="191" y="256" width="3" height="62" fill="#8DA5F3" />
<rect x="201" y="256" width="3" height="59" fill="#8DA5F3" />
<rect x="190" y="258" width="1" height="58" fill="#8DA5F3" />
<rect x="204" y="258" width="1" height="58" fill="#8DA5F3" />
<rect x="188" y="259" width="2" height="56" fill="#8DA5F3" />
<rect x="205" y="259" width="2" height="56" fill="#8DA5F3" />
<rect x="187" y="261" width="1" height="52" fill="#8DA5F3" />
<rect x="207" y="261" width="1" height="52" fill="#8DA5F3" />
<rect x="184" y="262" width="3" height="2" fill="#8DA5F3" />
<rect x="208" y="262" width="3" height="50" fill="#8DA5F3" />
<rect x="182" y="264" width="2" height="46" fill="#8DA5F3" />
<rect x="184" y="264" width="1" height="1" fill="#8DA5F3" opacity="0.996078" />
<rect x="185" y="264" width="2" height="48" fill="#8DA5F3" />
<rect x="211" y="264" width="2" height="46" fill="#8DA5F3" />
<rect x="181" y="265" width="1" height="44" fill="#8DA5F3" />
<rect x="184" y="265" width="1" height="44" fill="#8DA5F3" />
<rect x="213" y="265" width="1" height="3" fill="#8DA5F3" />
<rect x="179" y="267" width="2" height="40" fill="#8DA5F3" />
<rect x="131" y="268" width="3" height="2" fill="#8DA5F3" />
<rect x="176" y="268" width="3" height="38" fill="#8DA5F3" />
<rect x="221" y="268" width="28" height="32" fill="#8DA5F3" />
<rect x="281" y="268" width="28" height="32" fill="#8DA5F3" />
<rect x="219" y="269" width="2" height="30" fill="#8DA5F3" />
<rect x="309" y="269" width="2" height="30" fill="#8DA5F3" />
<rect x="174" y="270" width="2" height="34" fill="#8DA5F3" />
<rect x="218" y="270" width="1" height="28" fill="#8DA5F3" />
<rect x="311" y="270" width="1" height="28" fill="#8DA5F3" />
<rect x="173" y="272" width="1" height="30" fill="#8DA5F3" />
<rect x="217" y="272" width="1" height="24" fill="#8DA5F3" />
<rect x="312" y="272" width="1" height="24" fill="#8DA5F3" />
<rect x="170" y="273" width="3" height="2" fill="#8DA5F3" />
<rect x="168" y="275" width="2" height="24" fill="#8DA5F3" />
<rect x="170" y="275" width="1" height="1" fill="#8DA5F3" opacity="0.980392" />
<rect x="171" y="275" width="2" height="26" fill="#8DA5F3" />
<rect x="167" y="276" width="1" height="22" fill="#8DA5F3" />
<rect x="170" y="276" width="1" height="25" fill="#8DA5F3" />
<rect x="165" y="278" width="2" height="18" fill="#8DA5F3" />
<rect x="162" y="279" width="3" height="2" fill="#8DA5F3" />
<rect x="160" y="281" width="3" height="11" fill="#8DA5F3" />
<rect x="163" y="281" width="1" height="1" fill="#8DA5F3" opacity="0.996078" />
<rect x="164" y="281" width="1" height="14" fill="#8DA5F3" />
<rect x="159" y="282" width="1" height="10" fill="#8DA5F3" />
<rect x="163" y="282" width="1" height="10" fill="#8DA5F3" />
<rect x="157" y="284" width="2" height="6" fill="#8DA5F3" />
<rect x="154" y="285" width="3" height="4" fill="#8DA5F3" />
<rect x="160" y="292" width="2" height="2" fill="#8DA5F3" />
<rect x="162" y="292" width="2" height="1" fill="#8DA5F3" opacity="0.992157" />
<rect x="162" y="293" width="2" height="2" fill="#8DA5F3" />
<rect x="213" y="300" width="1" height="9" fill="#8DA5F3" />
<rect x="214" y="302" width="1" height="5" fill="#8DA5F3" />
<rect x="215" y="303" width="2" height="3" fill="#8DA5F3" />
<rect x="217" y="304" width="2" height="2" fill="#8DA5F3" />
<rect x="215" y="306" width="1" height="1" fill="#8DA5F3" />
<rect x="184" y="309" width="1" height="1" fill="#8DA5F3" opacity="0.992157" />
<rect x="184" y="310" width="1" height="2" fill="#8DA5F3" />
<rect x="201" y="315" width="1" height="3" fill="#8DA5F3" />
<rect x="202" y="315" width="1" height="1" fill="#8DA5F3" opacity="0.988235" />
<rect x="203" y="315" width="1" height="3" fill="#8DA5F3" />
<rect x="202" y="316" width="1" height="2" fill="#8DA5F3" />
</svg>